<?xml version="1.0" standalone="no"?>
<!DOCTYPE svg PUBLIC "-//W3C//DTD SVG 20010904//EN"
 "http://www.w3.org/TR/2001/REC-SVG-20010904/DTD/svg10.dtd">
<svg version="1.0" xmlns="http://www.w3.org/2000/svg"
 width="64.000000pt" height="64.000000pt" viewBox="0 0 64.000000 64.000000"
 preserveAspectRatio="xMidYMid meet">

<g transform="translate(0.000000,64.000000) scale(0.100000,-0.100000)"
fill="#FFF" stroke="none">
<path d="M39 601 c-36 -37 -38 -79 -5 -118 13 -16 26 -39 28 -52 7 -53 69 -53
76 0 2 13 15 36 28 52 33 39 31 81 -5 118 -20 20 -39 29 -61 29 -22 0 -41 -9
-61 -29z m108 -13 c31 -29 29 -58 -7 -103 -30 -37 -30 -37 -30 -11 0 14 5 35
12 45 15 24 4 51 -22 51 -26 0 -37 -27 -22 -51 7 -10 12 -31 12 -45 0 -26 0
-26 -30 11 -36 45 -38 71 -8 102 27 29 65 29 95 1z m-37 -48 c0 -5 -4 -10 -10
-10 -5 0 -10 5 -10 10 0 6 5 10 10 10 6 0 10 -4 10 -10z m2 -122 c-9 -9 -15
-9 -24 0 -9 9 -7 12 12 12 19 0 21 -3 12 -12z"/>
<path d="M272 607 c-28 -30 -28 -68 1 -95 30 -28 68 -28 95 1 28 30 28 68 -1
95 -30 28 -68 28 -95 -1z m82 -13 c31 -30 9 -84 -34 -84 -24 0 -50 26 -50 50
0 24 26 50 50 50 10 0 26 -7 34 -16z"/>
<path d="M313 566 c-25 -12 -29 -21 -12 -31 11 -7 49 22 49 37 0 10 -8 9 -37
-6z"/>
<path d="M490 619 c0 -6 -6 -9 -12 -6 -18 6 -58 -32 -51 -49 3 -8 0 -14 -6
-14 -6 0 -11 -13 -11 -30 0 -16 5 -30 11 -30 6 0 9 -6 6 -12 -6 -18 32 -58 49
-51 8 3 14 0 14 -6 0 -6 14 -11 30 -11 17 0 30 5 30 11 0 6 6 9 14 6 17 -7 55
33 49 51 -3 6 0 12 6 12 6 0 11 14 11 30 0 17 -5 30 -11 30 -6 0 -9 6 -6 13 6
17 -32 57 -49 50 -8 -3 -14 0 -14 6 0 6 -13 11 -30 11 -16 0 -30 -5 -30 -11z
m48 -21 c7 -7 20 -13 30 -13 9 0 17 -7 17 -16 0 -9 6 -24 14 -33 11 -13 11
-19 0 -32 -8 -9 -14 -24 -14 -33 0 -9 -7 -16 -16 -16 -9 0 -24 -6 -33 -14 -13
-11 -19 -11 -32 0 -9 8 -24 14 -33 14 -9 0 -16 7 -16 16 0 9 -6 24 -14 33 -11
13 -11 19 0 32 8 9 14 24 14 33 0 9 8 16 17 16 10 0 23 6 30 13 6 6 15 12 18
12 3 0 12 -6 18 -12z"/>
<path d="M486 554 c-9 -8 -16 -24 -16 -34 0 -43 54 -65 84 -34 31 30 9 84 -34
84 -10 0 -26 -7 -34 -16z m59 -34 c0 -18 -6 -26 -23 -28 -13 -2 -25 3 -28 12
-10 26 4 48 28 44 17 -2 23 -10 23 -28z"/>
<path d="M258 454 c-38 -20 -58 -63 -58 -122 0 -33 -5 -54 -16 -63 -12 -10
-14 -23 -10 -51 5 -30 3 -38 -9 -38 -11 0 -15 12 -15 48 0 26 5 53 11 59 9 9
8 21 -5 48 -15 32 -21 36 -49 33 l-32 -3 -3 -106 c-2 -93 0 -109 17 -130 16
-20 28 -24 65 -22 l46 1 0 -49 0 -49 120 0 120 0 0 49 0 49 46 -1 c37 -2 49 2
65 22 17 21 19 37 17 130 l-3 106 -32 3 c-28 3 -34 -1 -49 -33 -13 -27 -14
-39 -5 -48 6 -6 11 -33 11 -61 l0 -49 -25 23 c-22 21 -25 30 -19 66 5 39 -10
105 -37 155 -23 44 -100 61 -151 33z m123 -31 c27 -29 50 -117 43 -163 -4 -26
-2 -45 6 -55 10 -13 9 -15 -11 -15 -13 0 -30 4 -38 9 -11 7 -11 13 3 32 10 15
16 44 16 76 l0 53 -41 0 c-22 0 -49 5 -60 10 -13 8 -25 7 -39 0 -27 -14 -28
-104 -3 -140 10 -14 18 -29 18 -35 1 -5 5 -18 9 -28 9 -19 -7 -67 -22 -67 -13
0 -56 49 -50 56 4 3 16 1 27 -6 33 -17 25 2 -14 33 -38 30 -44 56 -20 81 9 9
15 33 15 63 0 57 16 93 50 111 31 16 88 8 111 -15z m-32 -83 c29 0 31 -2 31
-40 0 -69 -57 -103 -100 -60 -14 14 -20 33 -20 64 0 47 12 60 42 45 9 -5 30
-9 47 -9z m-219 -4 c0 -8 5 -16 12 -18 19 -7 -2 -28 -28 -28 -20 0 -24 5 -24
30 0 23 4 30 20 30 11 0 20 -6 20 -14z m420 -16 c0 -25 -4 -30 -24 -30 -26 0
-47 21 -28 28 7 2 12 10 12 18 0 8 9 14 20 14 16 0 20 -7 20 -30z m-418 -102
c3 -50 4 -53 31 -53 19 1 27 -4 27 -16 0 -25 -47 -33 -76 -14 -21 13 -24 23
-24 75 0 53 2 60 19 60 17 0 20 -8 23 -52z m418 -7 c0 -75 -19 -93 -87 -84
l-43 6 0 -52 c0 -50 -1 -51 -29 -51 -21 0 -30 6 -35 23 -8 32 -7 49 3 43 5 -4
12 12 16 35 l7 41 62 -4 61 -3 3 53 c3 44 6 52 23 52 17 0 19 -7 19 -59z
m-215 -31 c-19 -21 -35 -18 -35 6 0 9 10 14 27 14 25 0 26 -1 8 -20z m21 -37
c-10 -10 -19 5 -10 18 6 11 8 11 12 0 2 -7 1 -15 -2 -18z m-22 -65 c5 -44 4
-48 -15 -48 -19 0 -21 4 -15 38 3 20 6 46 6 57 0 35 17 1 24 -47z m-70 -2 c12
5 16 0 16 -20 0 -22 -4 -26 -30 -26 -28 0 -30 2 -30 38 1 33 2 35 14 19 8 -10
20 -15 30 -11z"/>
</g>
</svg>
