<?xml version="1.0" standalone="no"?>
<!DOCTYPE svg PUBLIC "-//W3C//DTD SVG 20010904//EN"
 "http://www.w3.org/TR/2001/REC-SVG-20010904/DTD/svg10.dtd">
<svg version="1.0" xmlns="http://www.w3.org/2000/svg"
 width="512.000000pt" height="512.000000pt" viewBox="0 0 512.000000 512.000000"
 preserveAspectRatio="xMidYMid meet">

<g transform="translate(0.000000,512.000000) scale(0.100000,-0.100000)"
fill="#000000" stroke="none">
<path d="M3315 5114 c-113 -12 -338 -49 -484 -80 -437 -94 -665 -219 -845
-464 -102 -139 -154 -247 -252 -528 -80 -226 -107 -340 -108 -447 0 -108 20
-159 96 -239 46 -47 49 -54 44 -89 -11 -64 -44 -116 -140 -216 -191 -201 -256
-295 -256 -369 0 -87 42 -138 173 -210 69 -38 77 -46 77 -72 0 -16 -16 -59
-35 -96 -46 -87 -48 -140 -5 -183 17 -16 39 -33 50 -36 16 -5 18 -10 9 -31
-15 -42 -13 -101 4 -128 10 -14 42 -42 73 -61 l57 -37 -9 -66 c-4 -37 -8 -101
-7 -142 1 -184 118 -320 276 -321 62 -1 265 50 481 121 116 38 153 47 164 38
42 -36 95 -190 124 -363 17 -104 17 -675 0 -832 -14 -123 -6 -160 41 -212 49
-53 8 -51 1115 -51 l1029 0 43 23 c49 26 90 90 90 140 0 49 -47 267 -85 393
-72 239 -187 492 -320 704 -99 158 -119 226 -150 500 -52 446 7 657 290 1045
114 156 195 313 232 450 25 94 27 113 26 315 0 234 -15 353 -68 534 -73 253
-222 459 -455 632 -276 205 -498 309 -772 360 -80 15 -414 27 -503 18z m418
-179 c266 -35 466 -123 737 -323 280 -208 397 -401 456 -757 27 -162 25 -451
-4 -557 -39 -144 -98 -251 -254 -462 -180 -244 -263 -451 -289 -724 -8 -93 -7
-146 5 -276 9 -89 19 -172 22 -185 5 -21 -11 -41 -108 -135 -62 -61 -152 -137
-200 -169 -286 -191 -633 -312 -1069 -372 l-46 -7 -6 89 c-8 111 -46 260 -92
366 -20 45 -37 88 -38 95 -1 9 46 31 135 62 183 65 285 119 357 190 128 126
137 310 16 310 -40 0 -72 -26 -80 -65 -3 -14 -7 -37 -10 -51 -9 -40 -80 -109
-153 -147 -76 -40 -606 -224 -841 -293 -86 -25 -182 -48 -213 -51 -53 -5 -59
-4 -86 24 -41 40 -60 125 -44 194 18 78 15 164 -7 208 -19 37 -76 94 -102 103
-9 3 -2 19 21 53 60 87 37 153 -59 169 l-41 6 22 43 c18 34 23 58 23 128 0 78
-2 89 -28 122 -16 21 -61 56 -100 80 -40 23 -83 50 -96 59 l-24 17 57 77 c32
42 105 126 163 186 81 85 113 127 139 182 67 142 53 258 -41 344 -63 57 -73
98 -51 209 10 48 34 138 53 198 208 647 384 837 891 964 386 97 725 130 985
96z m727 -3548 c0 -7 16 -45 34 -84 l35 -72 -52 -46 c-144 -128 -426 -283
-662 -365 -241 -83 -460 -132 -792 -175 l-33 -4 0 77 0 77 168 27 c501 82 916
260 1206 517 75 66 96 76 96 48z m200 -364 c52 -97 121 -252 162 -368 38 -106
110 -370 121 -448 l6 -37 -996 0 c-847 0 -994 2 -990 14 3 8 9 73 13 145 4 72
10 134 15 136 4 3 61 12 126 21 405 53 750 149 1038 289 135 66 338 195 415
264 25 22 48 40 52 41 3 0 21 -26 38 -57z"/>
<path d="M3444 4669 c-31 -35 -37 -64 -20 -97 20 -39 52 -49 167 -56 455 -26
830 -284 919 -632 24 -94 34 -112 68 -121 62 -16 112 17 112 76 0 54 -36 173
-76 254 -121 240 -345 421 -645 521 -144 48 -244 67 -384 73 -117 5 -121 5
-141 -18z"/>
<path d="M4559 3570 c-29 -17 -43 -66 -29 -100 15 -37 62 -64 93 -54 64 19 87
87 46 138 -16 20 -29 26 -57 26 -20 0 -44 -5 -53 -10z"/>
<path d="M393 3150 c-62 -25 -242 -353 -306 -555 -117 -368 -115 -742 4 -1110
59 -179 217 -471 286 -525 35 -27 78 -26 108 5 40 39 33 72 -40 184 -122 186
-203 384 -247 603 -29 149 -32 422 -4 572 40 217 134 451 255 631 41 61 61
100 61 121 0 53 -66 95 -117 74z"/>
<path d="M616 2865 c-47 -51 -125 -187 -169 -294 -156 -379 -136 -794 55
-1162 60 -116 128 -206 160 -211 52 -8 108 35 108 84 0 7 -29 59 -64 116 -260
417 -259 904 4 1306 67 102 71 126 32 166 -43 42 -84 41 -126 -5z"/>
<path d="M888 2628 c-53 -44 -148 -236 -179 -364 -27 -112 -30 -303 -6 -411
36 -157 143 -368 201 -394 51 -24 116 17 116 72 0 20 -15 56 -39 94 -49 78
-86 165 -108 253 -21 88 -21 256 0 345 20 79 71 196 116 261 38 55 41 103 8
134 -26 25 -84 30 -109 10z"/>
<path d="M1099 2279 c-52 -52 -86 -190 -70 -287 26 -165 115 -249 186 -177 31
30 32 67 4 130 -13 30 -21 68 -21 105 0 37 8 75 21 105 27 62 27 90 -4 120
-31 32 -86 34 -116 4z"/>
</g>
</svg>
