<?xml version="1.0" standalone="no"?>
<!DOCTYPE svg PUBLIC "-//W3C//DTD SVG 20010904//EN"
 "http://www.w3.org/TR/2001/REC-SVG-20010904/DTD/svg10.dtd">
<svg version="1.0" xmlns="http://www.w3.org/2000/svg"
 width="64.000000pt" height="64.000000pt" viewBox="0 0 64.000000 64.000000"
 preserveAspectRatio="xMidYMid meet">

<g transform="translate(0.000000,64.000000) scale(0.100000,-0.100000)"
fill="#FFF" stroke="none">
<path d="M272 615 c-24 -20 -41 -25 -86 -25 -60 0 -76 -13 -90 -72 -4 -18 -21
-37 -47 -53 -51 -33 -56 -48 -36 -102 15 -40 15 -48 1 -83 -21 -53 -16 -68 35
-105 32 -22 48 -41 54 -65 13 -53 24 -60 84 -60 44 0 61 -5 85 -25 37 -31 59
-31 96 0 24 20 41 25 85 25 60 0 71 7 84 60 6 24 22 43 54 65 51 37 56 52 35
106 -14 35 -14 43 0 78 21 54 16 69 -35 106 -32 22 -48 41 -54 65 -13 53 -24
60 -84 60 -44 0 -61 5 -85 25 -16 14 -38 25 -48 25 -10 0 -32 -11 -48 -25z
m89 -41 c21 -22 30 -25 79 -22 l55 3 9 -44 c8 -36 16 -48 53 -70 48 -29 49
-33 28 -85 -14 -32 -14 -40 0 -72 21 -52 20 -56 -29 -86 -37 -22 -45 -33 -51
-67 -7 -44 -8 -45 -75 -42 -37 2 -49 -2 -69 -23 -31 -33 -51 -33 -82 0 -20 21
-32 25 -69 23 -67 -3 -68 -2 -75 42 -6 34 -14 45 -51 67 -49 30 -50 34 -29 86
14 32 14 40 0 72 -21 52 -20 58 25 83 32 18 42 31 53 69 l13 47 55 -3 c48 -3
57 0 78 22 14 14 32 26 41 26 9 0 27 -12 41 -26z"/>
<path d="M274 521 c-134 -33 -200 -186 -130 -305 105 -179 379 -104 379 104 0
131 -125 231 -249 201z m98 -41 c21 -6 51 -27 71 -49 64 -71 59 -170 -12 -234
-71 -64 -170 -59 -234 12 -63 70 -60 165 7 230 48 47 100 60 168 41z"/>
<path d="M355 340 l-48 -49 -39 35 c-37 33 -58 37 -58 10 0 -17 72 -86 90 -86
18 0 130 110 130 127 0 25 -26 12 -75 -37z"/>
</g>
</svg>
