<?xml version="1.0" standalone="no"?>
<!DOCTYPE svg PUBLIC "-//W3C//DTD SVG 20010904//EN"
 "http://www.w3.org/TR/2001/REC-SVG-20010904/DTD/svg10.dtd">
<svg version="1.0" xmlns="http://www.w3.org/2000/svg"
 width="512.000000pt" height="512.000000pt" viewBox="0 0 512.000000 512.000000"
 preserveAspectRatio="xMidYMid meet">

<g transform="translate(0.000000,512.000000) scale(0.100000,-0.100000)"
fill="#FFF" stroke="none">
<path d="M873 4615 c-117 -32 -196 -97 -247 -205 l-31 -65 0 -1865 0 -1865 31
-65 c53 -111 144 -184 262 -209 37 -8 331 -11 978 -11 986 0 964 -1 1007 48
27 29 33 92 13 130 -34 65 20 62 -1005 62 -1020 0 -987 -2 -1028 58 -17 26
-18 108 -18 1852 0 1752 1 1826 18 1852 42 62 -58 59 1727 56 1593 -3 1626 -3
1654 -23 57 -39 56 -17 56 -852 0 -750 1 -769 20 -801 38 -63 120 -71 178 -18
l37 34 3 783 c3 871 4 857 -64 956 -55 80 -132 131 -232 152 -38 8 -512 11
-1680 10 -1369 0 -1635 -3 -1679 -14z"/>
<path d="M1260 3949 c-88 -35 -101 -147 -25 -207 l28 -22 1289 0 c1198 0 1292
1 1319 17 57 34 73 115 33 172 -38 53 15 51 -1351 50 -811 0 -1277 -4 -1293
-10z"/>
<path d="M1260 3099 c-88 -35 -101 -147 -25 -207 l28 -22 1289 0 c1198 0 1292
1 1319 17 57 34 73 115 33 172 -38 53 15 51 -1351 50 -811 0 -1277 -4 -1293
-10z"/>
<path d="M3652 2611 c-124 -31 -215 -83 -313 -180 -70 -70 -94 -102 -127 -171
-56 -113 -72 -183 -72 -305 0 -120 17 -192 68 -298 l38 -77 -128 -293 c-256
-579 -251 -567 -239 -593 5 -12 22 -30 36 -40 24 -16 31 -15 177 31 84 26 154
43 156 38 2 -4 33 -69 70 -143 55 -112 72 -137 95 -145 61 -21 69 -8 236 368
85 191 158 344 162 340 4 -4 76 -165 160 -358 85 -192 162 -358 172 -367 20
-21 65 -23 89 -4 10 7 47 74 82 150 36 75 68 136 71 136 3 0 71 -20 150 -45
113 -35 150 -43 169 -35 27 10 46 38 46 68 0 10 -85 212 -190 449 l-189 429
43 86 c53 106 71 185 71 308 -1 111 -15 179 -60 275 -68 149 -171 253 -320
326 -140 69 -303 86 -453 50z m283 -176 c244 -64 405 -307 366 -554 -16 -103
-56 -184 -129 -263 -307 -328 -852 -112 -852 337 0 324 303 561 615 480z
m-516 -1028 c59 -44 147 -85 232 -109 l47 -13 -124 -280 c-68 -154 -127 -289
-132 -300 -8 -17 -16 -5 -55 77 -60 129 -66 131 -195 91 -53 -17 -98 -30 -100
-28 -4 4 259 605 265 605 1 0 30 -20 62 -43z m983 -283 c75 -170 136 -310 134
-311 -1 -1 -43 11 -94 27 -51 17 -100 30 -110 30 -31 -1 -51 -26 -96 -121
l-45 -93 -19 44 c-11 25 -72 163 -136 308 -64 145 -116 267 -116 271 0 4 25
13 56 20 65 15 222 91 249 121 10 11 23 19 29 17 6 -2 72 -143 148 -313z"/>
<path d="M1260 2249 c-88 -35 -101 -147 -25 -207 l28 -22 774 0 c712 0 777 1
804 17 57 34 73 115 33 172 -37 52 -26 51 -836 50 -472 0 -762 -4 -778 -10z"/>
<path d="M1253 1385 c-88 -38 -89 -168 -2 -212 18 -10 196 -13 764 -13 568 0
746 3 764 13 60 30 83 118 46 174 -36 54 -25 53 -812 53 -597 -1 -734 -3 -760
-15z"/>
</g>
</svg>
